<?xml version="1.0" encoding="utf-8"?><!-- Generator: Adobe Illustrator 19.2.1, SVG Export Plug-In . SVG Version: 6.00 Build 0) --><svg version="1.1" id="Layer_1" xmlns="http://www.w3.org/2000/svg" xmlns:xlink="http://www.w3.org/1999/xlink" x="0px" y="0px" viewBox="0 0 1501.7 1504.4" style="enable-background:new 0 0 1501.7 1504.4;" xml:space="preserve"><style type="text/css">.st0{fill:#ffffff;}	.st1{fill:#16A05D;}</style><title>Like</title><ellipse class="st0" cx="750.8" cy="752.2" rx="750.8" ry="752.2"/><path class="st1" d="M378.3,667.5h165.1c13,0,23.6,10.5,23.6,23.6v379.1c0,13-10.5,23.6-23.6,23.6H378.3c-13,0-23.6-10.5-23.6-23.6	V691C354.8,678,365.3,667.5,378.3,667.5z"/><path class="st1" d="M624.7,1004.7V733.1c0.1-66.9,18.8-132.4,54.1-189.2c21.5-34.4,69.7-89.5,96.7-118c6-6.4,27.8-25.2,27.8-35.5	c0-13.2,1.5-34.5,2-74.2c0.3-25.2,20.8-45.9,46-45.7h1.1c44.1,0.8,58.2,41.6,58.2,41.6s37.7,74.4,2.5,165.4	c-29.7,76.9-35.8,83.1-35.8,83.1s-9.6,13.9,20.8,13.3c0,0,185.6-0.8,192-0.8c13.7,0,57.4,12.5,54.9,68.2	c-1.8,41.2-27.4,55.6-40.5,60.3c-1.7,0.6-2.6,2.5-1.9,4.2c0.3,0.7,0.8,1.3,1.5,1.7c13.4,7.8,40.8,27.5,40.2,57.7	c-0.8,36.6-15.5,50.1-46.1,58.5c-1.7,0.4-2.8,2.2-2.3,3.9c0.2,0.9,0.8,1.6,1.5,2c11.6,6.6,31.5,22.7,30.3,55.3	c-1.2,33.2-25.2,44.9-38.3,48.9c-1.7,0.5-2.7,2.3-2.2,4c0.2,0.7,0.7,1.4,1.3,1.8c8.3,5.7,20.6,18.6,20,45.1	c-0.3,14-5,24.2-10.9,31.5c-9.3,11.5-23.9,17.5-38.7,17.6l-411.8,0.8C647,1034.5,624.7,1034.6,624.7,1004.7z"/></svg>